<svg width="56" height="56" viewBox="0 0 56 56" fill="none" xmlns="http://www.w3.org/2000/svg">
<path opacity="0.2" d="M28 10C30.3638 10 32.7044 10.4656 34.8883 11.3702C37.0722 12.2748 39.0565 13.6006 40.7279 15.2721C42.3994 16.9435 43.7252 18.9278 44.6298 21.1117C45.5344 23.2956 46 25.6362 46 28C46 30.3638 45.5344 32.7044 44.6298 34.8883C43.7252 37.0722 42.3994 39.0565 40.7279 40.7279C39.0565 42.3994 37.0722 43.7252 34.8883 44.6298C32.7044 45.5344 30.3638 46 28 46C25.6362 46 23.2956 45.5344 21.1117 44.6298C18.9278 43.7252 16.9435 42.3994 15.2721 40.7279C13.6006 39.0565 12.2747 37.0722 11.3702 34.8883C10.4656 32.7044 10 30.3638 10 28C10 25.6362 10.4656 23.2955 11.3702 21.1117C12.2748 18.9278 13.6006 16.9435 15.2721 15.2721C16.9435 13.6006 18.9278 12.2747 21.1117 11.3702C23.2956 10.4656 25.6362 10 28 10L28 10Z" stroke="#B364D7" stroke-opacity="0.1" stroke-width="4" stroke-linecap="round"/>
<path d="M28 10C31.1288 10 34.2036 10.8156 36.9211 12.3662C39.6386 13.9169 41.9049 16.1492 43.4967 18.8429C45.0884 21.5365 45.9505 24.5986 45.9979 27.727C46.0454 30.8555 45.2765 33.9423 43.7672 36.683C42.258 39.4237 40.0603 41.7236 37.3911 43.356C34.7219 44.9884 31.6733 45.8968 28.5459 45.9917C25.4185 46.0866 22.3204 45.3647 19.5571 43.8971C16.7939 42.4296 14.4608 40.2671 12.7882 37.6229" stroke="#B364D7" stroke-width="4" stroke-linecap="round"/>
</svg>
