<svg width="379" height="155" viewBox="0 0 379 155" fill="none" xmlns="http://www.w3.org/2000/svg">
<path d="M363.696 98.2994L363.756 105.36L364.534 106.198L361.542 127.86H352.686L356.814 98.2994H363.696ZM378.177 97.5215L376.262 105.719H374.108C372.711 105.719 371.196 106.038 369.56 106.677C367.964 107.275 365.95 108.193 363.516 109.429L363.157 104.223C365.511 102.029 367.805 100.374 370.039 99.2568C372.273 98.0999 374.387 97.5215 376.382 97.5215H378.177Z" fill="white"/>
<path d="M336.921 97.5215C340.551 97.5215 343.343 97.9204 345.298 98.7183C347.293 99.4762 348.629 100.633 349.307 102.189C349.986 103.705 350.145 105.58 349.786 107.814C349.507 109.649 348.888 111.105 347.931 112.182C347.014 113.219 345.737 113.997 344.101 114.516C342.466 115.034 340.391 115.393 337.878 115.593L322.799 116.849L323.457 111.943L336.143 110.686C337.22 110.566 338.098 110.407 338.776 110.207C339.494 109.968 340.052 109.609 340.451 109.13C340.85 108.612 341.109 107.893 341.229 106.976C341.389 106.019 341.329 105.3 341.05 104.822C340.77 104.343 340.272 104.044 339.554 103.924C338.836 103.765 337.878 103.705 336.681 103.745C335.445 103.745 334.408 103.864 333.57 104.104C332.732 104.343 332.034 104.782 331.475 105.42C330.917 106.019 330.458 106.896 330.099 108.053C329.74 109.17 329.401 110.626 329.082 112.421C328.683 115.014 328.623 116.969 328.902 118.285C329.182 119.602 329.8 120.48 330.757 120.918C331.715 121.357 333.051 121.577 334.767 121.577C335.724 121.577 336.881 121.557 338.237 121.517C339.594 121.437 340.97 121.357 342.366 121.277C343.802 121.158 345.099 121.038 346.256 120.918L346.854 126.423C345.657 126.942 344.301 127.361 342.785 127.68C341.269 127.999 339.733 128.219 338.177 128.338C336.622 128.498 335.166 128.578 333.809 128.578C329.86 128.578 326.788 127.979 324.594 126.782C322.44 125.586 321.004 123.811 320.286 121.457C319.568 119.063 319.408 116.131 319.807 112.661C320.166 109.589 320.764 107.076 321.602 105.121C322.48 103.166 323.597 101.65 324.953 100.573C326.349 99.4563 328.045 98.6784 330.039 98.2395C332.034 97.7608 334.328 97.5215 336.921 97.5215Z" fill="white"/>
<path d="M300.438 85.9727L297.985 104.223C297.785 105.5 297.486 106.737 297.087 107.933C296.728 109.13 296.249 110.367 295.651 111.643C295.731 112.561 295.83 113.598 295.95 114.755C296.07 115.872 296.11 116.869 296.07 117.747L294.574 127.86H285.718L291.582 85.9727H300.438ZM317.552 98.2994C316.674 101.411 315.398 104.064 313.722 106.258C312.087 108.412 310.192 110.227 308.038 111.703C305.883 113.179 303.629 114.436 301.276 115.473C298.922 116.47 296.668 117.348 294.514 118.106L293.736 112.242C295.97 111.364 298.104 110.227 300.139 108.831C302.213 107.435 303.969 105.839 305.405 104.044C306.881 102.249 307.898 100.334 308.456 98.2994H317.552ZM306.003 111.045C307 111.643 307.818 112.361 308.456 113.199C309.095 114.037 309.613 114.915 310.012 115.832L315.637 127.86H306.422L299.959 113.259L306.003 111.045Z" fill="white"/>
<path d="M272.328 97.5215C274.203 97.5215 276.198 97.6811 278.312 98.0002C280.426 98.2794 282.281 98.7581 283.877 99.4363L282.62 104.882C280.865 104.802 279.19 104.762 277.594 104.762C275.998 104.722 274.642 104.702 273.525 104.702C271.77 104.702 270.333 104.941 269.217 105.42C268.1 105.899 267.242 106.757 266.643 107.993C266.045 109.19 265.606 110.885 265.327 113.079C265.008 115.393 264.968 117.149 265.207 118.345C265.447 119.542 266.025 120.36 266.943 120.799C267.9 121.237 269.236 121.457 270.952 121.457C271.67 121.457 272.528 121.437 273.525 121.397C274.562 121.357 275.679 121.317 276.876 121.277C278.073 121.198 279.229 121.078 280.346 120.918L280.945 126.663C279.229 127.341 277.335 127.82 275.26 128.099C273.226 128.418 271.271 128.578 269.396 128.578C265.925 128.578 263.113 128.059 260.959 127.022C258.805 125.945 257.309 124.249 256.471 121.936C255.673 119.582 255.533 116.51 256.052 112.72C256.611 109.05 257.468 106.118 258.625 103.924C259.822 101.69 261.517 100.075 263.711 99.0773C265.945 98.0401 268.818 97.5215 272.328 97.5215Z" fill="white"/>
<path d="M251.9 98.2997L247.771 127.86H238.975L243.103 98.2997H251.9ZM251.002 85.2549C251.96 85.2549 252.638 85.4942 253.037 85.9729C253.475 86.4516 253.635 87.1697 253.515 88.1271L253.096 91.2986C252.857 92.974 251.88 93.8118 250.164 93.8118H246.574C244.659 93.8118 243.802 92.8544 244.001 90.9395L244.48 87.7681C244.639 86.0926 245.597 85.2549 247.352 85.2549H251.002Z" fill="white"/>
<path d="M233.939 85.9727L229.272 118.585C229.112 119.622 229.232 120.36 229.631 120.799C230.07 121.198 230.888 121.397 232.084 121.397H234.777L235.196 127.441C234.717 127.72 234.019 127.939 233.102 128.099C232.224 128.259 231.346 128.378 230.469 128.458C229.591 128.538 228.873 128.578 228.315 128.578C225.482 128.578 223.348 127.86 221.912 126.423C220.476 124.947 219.917 122.953 220.236 120.44L225.083 85.9727H233.939Z" fill="white"/>
<path d="M206.177 85.853C208.131 85.853 209.807 85.9129 211.203 86.0325C212.599 86.1123 213.876 86.2719 215.033 86.5112C216.23 86.7107 217.426 86.99 218.623 87.349L217.426 93.9911C216.15 93.9113 214.933 93.8514 213.776 93.8115C212.659 93.7717 211.482 93.7517 210.246 93.7517C209.009 93.7118 207.533 93.6919 205.818 93.6919C204.262 93.6919 202.945 93.8913 201.868 94.2902C200.791 94.6493 199.854 95.3275 199.056 96.3248C198.298 97.2822 197.66 98.6784 197.141 100.513C196.623 102.309 196.184 104.662 195.825 107.574C195.346 111.005 195.166 113.678 195.286 115.593C195.446 117.508 196.004 118.844 196.962 119.602C197.959 120.36 199.475 120.739 201.509 120.739C204.342 120.739 206.675 120.699 208.51 120.619C210.385 120.499 212.22 120.36 214.016 120.2L214.434 126.962C212.44 127.521 210.445 127.919 208.451 128.159C206.456 128.438 204.043 128.578 201.21 128.578C196.942 128.578 193.571 127.86 191.097 126.424C188.664 124.987 187.068 122.694 186.31 119.542C185.552 116.351 185.532 112.122 186.251 106.856C186.849 102.827 187.627 99.4563 188.584 96.7436C189.542 94.031 190.778 91.8768 192.294 90.2811C193.81 88.6854 195.705 87.5484 197.979 86.8703C200.253 86.1921 202.985 85.853 206.177 85.853Z" fill="white"/>
<path d="M356.084 37.5215C359.714 37.5215 362.626 38.06 364.82 39.1371C367.014 40.1743 368.49 41.8498 369.248 44.1636C370.046 46.4773 370.166 49.5889 369.607 53.4984C369.089 57.2083 368.191 60.1803 366.915 62.4143C365.678 64.6084 363.923 66.1841 361.649 67.1415C359.375 68.0989 356.423 68.5776 352.793 68.5776C349.202 68.5776 346.29 68.059 344.056 67.0218C341.862 65.9846 340.346 64.3092 339.509 61.9954C338.711 59.6817 338.571 56.61 339.09 52.7803C339.648 49.0304 340.546 46.0584 341.782 43.8644C343.019 41.6304 344.794 40.0148 347.108 39.0174C349.462 38.0201 352.454 37.5215 356.084 37.5215ZM355.964 43.984C354.368 43.984 353.072 44.2433 352.075 44.7619C351.117 45.2805 350.339 46.218 349.741 47.5743C349.182 48.9307 348.724 50.9054 348.365 53.4984C348.045 55.7722 347.946 57.5474 348.065 58.824C348.225 60.1005 348.704 60.9782 349.502 61.4569C350.299 61.9356 351.476 62.1749 353.032 62.1749C354.628 62.1749 355.904 61.9156 356.862 61.397C357.819 60.8385 358.577 59.8811 359.136 58.5248C359.694 57.1684 360.153 55.2536 360.512 52.7803C360.831 50.4266 360.911 48.6315 360.751 47.3948C360.631 46.1183 360.173 45.2406 359.375 44.7619C358.617 44.2433 357.48 43.984 355.964 43.984Z" fill="white"/>
<path d="M296.728 38.2994L296.788 45.121L297.566 45.9587L294.514 67.8596H285.718L289.847 38.2994H296.728ZM308.516 37.5215C311.269 37.5215 313.263 38.2595 314.5 39.7355C315.777 41.2115 316.235 43.266 315.876 45.8989L312.765 67.8596H304.268L307.02 48.2924C307.18 47.0956 307.08 46.2579 306.721 45.7792C306.362 45.2606 305.684 45.0013 304.687 45.0013C303.968 45.0013 303.211 45.1609 302.413 45.48C301.615 45.7991 300.717 46.3177 299.72 47.0358C298.723 47.714 297.506 48.6714 296.07 49.908L294.993 45.48C297.466 42.7274 299.76 40.7129 301.874 39.4363C303.988 38.1598 306.202 37.5215 308.516 37.5215ZM326.946 37.5215C329.739 37.5215 331.773 38.2794 333.05 39.7953C334.327 41.2714 334.765 43.3059 334.366 45.8989L331.315 67.8596H322.518L325.271 48.2924C325.431 47.0159 325.291 46.1582 324.852 45.7194C324.453 45.2406 323.815 45.0013 322.937 45.0013C322.259 45.0013 321.521 45.1609 320.723 45.48C319.965 45.7592 319.088 46.2579 318.09 46.976C317.133 47.6541 315.976 48.6115 314.62 49.8482L313.483 45.48C315.956 42.6875 318.23 40.673 320.304 39.4363C322.419 38.1598 324.633 37.5215 326.946 37.5215Z" fill="white"/>
<path d="M269.242 37.5215C270.718 37.5215 272.293 37.5813 273.969 37.701C275.644 37.8207 277.26 37.9603 278.816 38.1199C280.411 38.2794 281.788 38.459 282.945 38.6584L282.107 44.1636C280.192 44.1237 278.277 44.1037 276.362 44.1037C274.487 44.0638 272.573 44.0239 270.618 43.984C269.102 43.984 267.885 44.0239 266.968 44.1037C266.09 44.1436 265.452 44.3032 265.053 44.5824C264.654 44.8218 264.415 45.2207 264.335 45.7792C264.255 46.4973 264.455 47.0557 264.933 47.4547C265.452 47.8536 266.33 48.2725 267.566 48.7113L274.926 51.3442C276.482 51.9027 277.759 52.5609 278.756 53.3188C279.753 54.0768 280.451 55.0143 280.85 56.1312C281.289 57.2482 281.409 58.6046 281.209 60.2003C280.93 62.5938 280.172 64.389 278.935 65.5857C277.739 66.7426 276.123 67.5205 274.089 67.9194C272.094 68.3183 269.661 68.5178 266.788 68.5178C265.232 68.5178 263.776 68.4779 262.42 68.3981C261.104 68.3582 259.727 68.2386 258.291 68.0391C256.895 67.8795 255.319 67.6801 253.564 67.4407L254.342 61.9356C255.1 61.9755 256.017 62.0154 257.094 62.0553C258.211 62.0553 259.368 62.0752 260.565 62.1151C261.802 62.1151 262.959 62.1151 264.036 62.1151C266.31 62.0752 268.045 61.9954 269.242 61.8757C270.438 61.7561 271.276 61.5566 271.755 61.2774C272.273 60.9582 272.593 60.4995 272.712 59.9011C272.792 59.3825 272.712 58.9835 272.473 58.7043C272.273 58.4251 271.894 58.1658 271.336 57.9264C270.817 57.687 270.099 57.4078 269.182 57.0887L262.001 54.3959C260.366 53.7975 259.049 53.0795 258.052 52.2417C257.094 51.404 256.436 50.3868 256.077 49.19C255.758 47.9932 255.698 46.6369 255.898 45.121C256.137 43.2859 256.735 41.8299 257.693 40.7528C258.65 39.6358 260.066 38.818 261.941 38.2994C263.816 37.7808 266.25 37.5215 269.242 37.5215Z" fill="white"/>
<path d="M236.699 37.5215C240.329 37.5215 243.241 38.06 245.435 39.1371C247.629 40.1743 249.106 41.8498 249.863 44.1636C250.661 46.4773 250.781 49.5889 250.222 53.4984C249.704 57.2083 248.806 60.1803 247.53 62.4143C246.293 64.6084 244.538 66.1841 242.264 67.1415C239.99 68.0989 237.038 68.5776 233.408 68.5776C229.818 68.5776 226.905 68.059 224.671 67.0218C222.477 65.9846 220.961 64.3092 220.124 61.9954C219.326 59.6817 219.186 56.61 219.705 52.7803C220.263 49.0304 221.161 46.0584 222.398 43.8644C223.634 41.6304 225.409 40.0148 227.723 39.0174C230.077 38.0201 233.069 37.5215 236.699 37.5215ZM236.579 43.984C234.984 43.984 233.687 44.2433 232.69 44.7619C231.732 45.2805 230.955 46.218 230.356 47.5743C229.798 48.9307 229.339 50.9054 228.98 53.4984C228.661 55.7722 228.561 57.5474 228.681 58.824C228.84 60.1005 229.319 60.9782 230.117 61.4569C230.915 61.9356 232.091 62.1749 233.647 62.1749C235.243 62.1749 236.519 61.9156 237.477 61.397C238.434 60.8385 239.192 59.8811 239.751 58.5248C240.309 57.1684 240.768 55.2536 241.127 52.7803C241.446 50.4266 241.526 48.6315 241.366 47.3948C241.247 46.1183 240.788 45.2406 239.99 44.7619C239.232 44.2433 238.095 43.984 236.579 43.984Z" fill="white"/>
<path d="M206.177 25.853C208.131 25.853 209.807 25.9129 211.203 26.0325C212.599 26.1123 213.876 26.2719 215.033 26.5112C216.23 26.7107 217.426 26.99 218.623 27.349L217.426 33.9911C216.15 33.9113 214.933 33.8514 213.776 33.8115C212.659 33.7716 211.482 33.7517 210.246 33.7517C209.009 33.7118 207.533 33.6919 205.818 33.6919C204.262 33.6919 202.945 33.8913 201.868 34.2902C200.791 34.6493 199.854 35.3274 199.056 36.3248C198.298 37.2822 197.66 38.6784 197.141 40.5135C196.623 42.3086 196.184 44.6622 195.825 47.5744C195.346 51.0051 195.166 53.6779 195.286 55.5927C195.446 57.5076 196.004 58.844 196.962 59.6019C197.959 60.3599 199.475 60.7388 201.509 60.7388C204.342 60.7388 206.675 60.699 208.51 60.6192C210.385 60.4995 212.22 60.3599 214.016 60.2003L214.434 66.9621C212.44 67.5205 210.445 67.9195 208.451 68.1588C206.456 68.4381 204.043 68.5777 201.21 68.5777C196.942 68.5777 193.571 67.8596 191.097 66.4235C188.664 64.9874 187.068 62.6936 186.31 59.5421C185.552 56.3507 185.532 52.1221 186.251 46.8563C186.849 42.8272 187.627 39.4563 188.584 36.7436C189.542 34.031 190.778 31.8768 192.294 30.2811C193.81 28.6854 195.705 27.5484 197.979 26.8703C200.253 26.1921 202.985 25.853 206.177 25.853Z" fill="white"/>
<path d="M119.229 75.4583V86.1496C119.229 108.409 101.204 127.039 77.816 128.655C75.1656 128.838 73.4956 128.726 73.33 128.726C73.1554 128.726 71.4854 128.838 68.835 128.655C45.4513 127.039 27.4312 108.409 27.4312 86.1496V75.4583C27.4312 66.8445 34.7914 59.8647 43.8664 59.8647H82.0334L56.9753 84.9228L112.254 62.7077C116.475 65.5327 119.229 70.1888 119.229 75.4583Z" fill="white"/>
<path d="M142.482 49.0569C138.802 38.6388 132.834 29.3041 125.179 21.6483C111.909 8.37833 93.575 0.171875 73.3253 0.171875C41.3994 0.171875 14.2371 20.5783 4.17262 49.0569C1.46848 56.7037 0 64.9281 0 73.4972V106.744C0 109.502 0.340261 112.233 1.01182 114.883C1.68338 117.538 2.67727 120.103 3.98905 122.53C16.3815 145.47 40.6427 154.259 68.5438 154.259H78.1112C92.0618 154.259 105.103 152.061 116.207 146.997C127.305 141.934 136.47 134 142.666 122.53C145.285 117.681 146.655 112.255 146.655 106.748V73.4972C146.655 64.9281 145.187 56.7037 142.482 49.0569ZM126.996 84.6316C126.996 112.045 105.923 134.999 78.5813 136.986C75.4787 137.21 73.5267 137.08 73.3297 137.08C73.1328 137.08 71.1763 137.21 68.0782 136.986C40.7368 134.999 19.6632 112.045 19.6632 84.6316V71.4601C19.6632 60.845 28.2681 52.2446 38.8788 52.2446H107.781C118.391 52.2446 126.996 60.8495 126.996 71.4601V84.6316Z" fill="white"/>
</svg>
