<svg width="13" height="14" viewBox="0 0 13 14" fill="none" xmlns="http://www.w3.org/2000/svg">
<path d="M10.3191 0.873411L10.3307 0.88037L10.341 0.886629L10.3943 0.918974L10.4009 0.924148L10.4082 0.927995L10.4303 0.947256L10.462 0.970749L10.4705 0.980326L10.4774 0.984836L10.4928 1.00228L10.5224 1.02975L10.5319 1.04237L10.5404 1.05027L10.5541 1.06935L10.5747 1.09462L10.5845 1.10992L10.5956 1.12425L10.6056 1.14225L10.6202 1.16437L10.6344 1.19218L10.6424 1.20577L10.6469 1.21828L10.6569 1.23795L10.6702 1.2738L10.6788 1.29278L10.6806 1.30221L10.6857 1.31507L10.6953 1.35486L10.7031 1.38186L10.7039 1.38993C10.7321 1.52943 10.7213 1.67212 10.6691 1.80653L10.6656 1.81485L10.6526 1.84275L10.6329 1.88661L8.5345 5.86742L11.8518 7.61606C11.9681 7.67732 12.0663 7.76808 12.1365 7.87923C12.2066 7.99038 12.2464 8.11802 12.2517 8.24936C12.257 8.3807 12.2277 8.51113 12.1667 8.62758C12.1057 8.74402 12.0152 8.84239 11.9042 8.91283L11.8326 8.95223L2.6778 13.4525C2.02711 13.7734 1.34535 13.0724 1.68388 12.4301L3.78225 8.44931L0.464914 6.70067C0.348616 6.63941 0.250463 6.54865 0.18029 6.4375C0.110116 6.32635 0.0703885 6.19871 0.0650869 6.06737C0.0597849 5.93603 0.0890953 5.8056 0.150081 5.68915C0.211067 5.57271 0.301585 5.47434 0.412566 5.4039L0.4842 5.3645L9.63896 0.86418L9.65014 0.859052L9.67047 0.849424L9.70566 0.835753L9.72529 0.827452L9.73406 0.825291L9.74759 0.820549L9.78671 0.810654L9.81438 0.803196L9.82179 0.802013C9.9331 0.779363 10.0481 0.78229 10.1581 0.810574L10.1657 0.813757L10.1854 0.819883L10.2391 0.837137L10.2467 0.840321L10.2746 0.853333L10.3191 0.873411Z" fill="#08070B"/>
</svg>
