<svg width="25" height="24" viewBox="0 0 25 24" fill="none" xmlns="http://www.w3.org/2000/svg">
<g clip-path="url(#clip0_4_109)">
<path d="M5.66666 5C5.66666 5.53043 5.87737 6.03914 6.25244 6.41421C6.62752 6.78929 7.13622 7 7.66666 7C8.19709 7 8.7058 6.78929 9.08087 6.41421C9.45594 6.03914 9.66666 5.53043 9.66666 5C9.66666 4.46957 9.45594 3.96086 9.08087 3.58579C8.7058 3.21071 8.19709 3 7.66666 3C7.13622 3 6.62752 3.21071 6.25244 3.58579C5.87737 3.96086 5.66666 4.46957 5.66666 5Z" stroke="#898989" stroke-width="2" stroke-linecap="round" stroke-linejoin="round"/>
<path d="M5.66666 22V17L4.66666 16V12C4.66666 11.7348 4.77201 11.4804 4.95955 11.2929C5.14709 11.1054 5.40144 11 5.66666 11H9.66666C9.93187 11 10.1862 11.1054 10.3738 11.2929C10.5613 11.4804 10.6667 11.7348 10.6667 12V16L9.66666 17V22" stroke="#898989" stroke-width="2" stroke-linecap="round" stroke-linejoin="round"/>
<path d="M15.6667 5C15.6667 5.53043 15.8774 6.03914 16.2524 6.41421C16.6275 6.78929 17.1362 7 17.6667 7C18.1971 7 18.7058 6.78929 19.0809 6.41421C19.4559 6.03914 19.6667 5.53043 19.6667 5C19.6667 4.46957 19.4559 3.96086 19.0809 3.58579C18.7058 3.21071 18.1971 3 17.6667 3C17.1362 3 16.6275 3.21071 16.2524 3.58579C15.8774 3.96086 15.6667 4.46957 15.6667 5Z" stroke="#898989" stroke-width="2" stroke-linecap="round" stroke-linejoin="round"/>
<path d="M15.6667 22V18H13.6667L15.6667 12C15.6667 11.7348 15.772 11.4804 15.9595 11.2929C16.1471 11.1054 16.4014 11 16.6667 11H18.6667C18.9319 11 19.1862 11.1054 19.3738 11.2929C19.5613 11.4804 19.6667 11.7348 19.6667 12L21.6667 18H19.6667V22" stroke="#898989" stroke-width="2" stroke-linecap="round" stroke-linejoin="round"/>
</g>
<defs>
<clipPath id="clip0_4_109">
<rect width="24" height="24" fill="white" transform="translate(0.666656)"/>
</clipPath>
</defs>
</svg>
