<svg width="25" height="24" viewBox="0 0 25 24" fill="none" xmlns="http://www.w3.org/2000/svg">
<g clip-path="url(#clip0_4_95)">
<path d="M17.3333 8V5C17.3333 4.73478 17.228 4.48043 17.0404 4.29289C16.8529 4.10536 16.5985 4 16.3333 4H6.33333C5.8029 4 5.29419 4.21071 4.91911 4.58579C4.54404 4.96086 4.33333 5.46957 4.33333 6M4.33333 6C4.33333 6.53043 4.54404 7.03914 4.91911 7.41421C5.29419 7.78929 5.8029 8 6.33333 8H18.3333C18.5985 8 18.8529 8.10536 19.0404 8.29289C19.228 8.48043 19.3333 8.73478 19.3333 9V12M4.33333 6V18C4.33333 18.5304 4.54404 19.0391 4.91911 19.4142C5.29419 19.7893 5.8029 20 6.33333 20H18.3333C18.5985 20 18.8529 19.8946 19.0404 19.7071C19.228 19.5196 19.3333 19.2652 19.3333 19V16" stroke="#898989" stroke-width="2" stroke-linecap="round" stroke-linejoin="round"/>
<path d="M20.3333 12V16H16.3333C15.8029 16 15.2942 15.7893 14.9191 15.4142C14.544 15.0391 14.3333 14.5304 14.3333 14C14.3333 13.4696 14.544 12.9609 14.9191 12.5858C15.2942 12.2107 15.8029 12 16.3333 12H20.3333Z" stroke="#898989" stroke-width="2" stroke-linecap="round" stroke-linejoin="round"/>
</g>
<defs>
<clipPath id="clip0_4_95">
<rect width="24" height="24" fill="white" transform="translate(0.333328)"/>
</clipPath>
</defs>
</svg>
